<svg height="512" viewBox="0 0 60 54" width="512" xmlns="http://www.w3.org/2000/svg" xmlns:xlink="http://www.w3.org/1999/xlink"><linearGradient id="linearGradient-1" x1="14.646%" x2="85.354%" y1="14.646%" y2="85.354%"><stop offset="0" stop-color="#d3dff2"/><stop offset=".172" stop-color="#d3dff2"/><stop offset=".2" stop-color="#d3dff2"/><stop offset=".2" stop-color="#dae2f2"/><stop offset=".201" stop-color="#ebeaf2"/><stop offset=".201" stop-color="#f6eff2"/><stop offset=".202" stop-color="#fdf2f2"/><stop offset=".205" stop-color="#fff3f2"/><stop offset=".252" stop-color="#fff3f2"/><stop offset=".26" stop-color="#fff3f2"/><stop offset=".26" stop-color="#d3dff2"/><stop offset=".397" stop-color="#d3dff2"/><stop offset=".42" stop-color="#d3dff2"/><stop offset=".42" stop-color="#dae2f2"/><stop offset=".421" stop-color="#ebeaf2"/><stop offset=".421" stop-color="#f6eff2"/><stop offset=".422" stop-color="#fdf2f2"/><stop offset=".425" stop-color="#fff3f2"/><stop offset=".489" stop-color="#fff3f2"/><stop offset=".5" stop-color="#fff3f2"/><stop offset=".5" stop-color="#f8f0f2"/><stop offset=".5" stop-color="#e7e8f2"/><stop offset=".5" stop-color="#dce3f2"/><stop offset=".5" stop-color="#d5e0f2"/><stop offset=".501" stop-color="#d3dff2"/><stop offset=".706" stop-color="#d3dff2"/><stop offset=".74" stop-color="#d3dff2"/><stop offset=".741" stop-color="#fff3f2"/><stop offset=".835" stop-color="#fff3f2"/><stop offset=".85" stop-color="#fff3f2"/><stop offset=".851" stop-color="#d3dff2"/></linearGradient><g id="Page-1" fill="none" fill-rule="evenodd"><g id="003---Camera"><path id="Shape" d="m59 11v8h-58v-8c.0032948-1.10320187.89679813-1.9967052 2-2h54c1.1032019.0032948 1.9967052.89679813 2 2z" fill="#e8edfc" fill-rule="nonzero"/><path id="Shape" d="m57 9h-3c1.1032019.0032948 1.9967052.89679813 2 2v8h3v-8c-.0032948-1.10320187-.8967981-1.9967052-2-2z" fill="#cad9fc" fill-rule="nonzero"/><path id="Shape" d="m59 19v32c-.0032948 1.1032019-.8967981 1.9967052-2 2h-54c-1.10320187-.0032948-1.9967052-.8967981-2-2v-32z" fill="#cad9fc" fill-rule="nonzero"/><path id="Shape" d="m56 19v32c-.0032948 1.1032019-.8967981 1.9967052-2 2h3c1.1032019-.0032948 1.9967052-.8967981 2-2v-32z" fill="#a4c2f7" fill-rule="nonzero"/><path id="Shape" d="m38.614 1h-13.228c-.8343843.00020836-1.5809655.51839072-1.873 1.3l-2.513 6.7h22l-2.513-6.7c-.2920345-.78160928-1.0386157-1.29979164-1.873-1.3z" fill="#e8edfc" fill-rule="nonzero"/><path id="Shape" d="m40.487 2.3c-.2920345-.78160928-1.0386157-1.29979164-1.873-1.3h-3c.8343843.00020836 1.5809655.51839072 1.873 1.3l2.513 6.7h3z" fill="#cad9fc" fill-rule="nonzero"/><path id="Shape" d="m48 5h6c.5522847 0 1 .44771525 1 1v3h-8v-3c0-.55228475.4477153-1 1-1z" fill="#cad9fc" fill-rule="nonzero"/><path id="Shape" d="m6 5h10c.5522847 0 1 .44771525 1 1v3h-12v-3c0-.55228475.44771525-1 1-1z" fill="#cad9fc" fill-rule="nonzero"/><circle id="Oval" cx="32" cy="35" fill="#e8edfc" fill-rule="nonzero" r="18"/><path id="Shape" d="m5 14h16" stroke="#428dff" stroke-linecap="round" stroke-linejoin="round" stroke-width="2"/><path id="Shape" d="m55 14h-2" stroke="#428dff" stroke-linecap="round" stroke-linejoin="round" stroke-width="2"/><path id="Shape" d="m27 5h10" stroke="#428dff" stroke-linecap="round" stroke-linejoin="round" stroke-width="2"/><g fill-rule="nonzero"><circle id="Oval" cx="32" cy="35" fill="url(#linearGradient-1)" r="14"/><path id="Shape" d="m32 21c-.501124.000841-1.0018425.0285475-1.5.083 7.1005043.7766351 12.477794 6.7741488 12.477794 13.917s-5.3772897 13.1403649-12.477794 13.917c5.1556805.5638557 10.2006402-1.7687254 13.1106632-6.0618293s3.2082338-9.8432051.7749798-14.423407-7.1992273-7.4399313-12.385643-7.4317637z" fill="#a4c2f7"/><circle id="Oval" cx="32" cy="35" fill="#fff" r="4"/><path id="Shape" d="m3 53h3c-1.10320187-.0032948-1.9967052-.8967981-2-2v-40c.0032948-1.10320187.89679813-1.9967052 2-2h2v-3c0-.55228475.44771525-1 1-1h-3c-.55228475 0-1 .44771525-1 1v3h-2c-1.10320187.0032948-1.9967052.89679813-2 2v40c.0032948 1.1032019.89679813 1.9967052 2 2z" fill="#fff"/><path id="Rectangle-path" d="m0 43h2v8h-2z" fill="#fff"/><path id="Shape" d="m1.02 48c-.55228473.0027614-1.00223852-.4427153-1.00499994-.995-.00276143-.5522847.44271521-1.0022385.99499994-1.005h.01c.55228475 0 1 .4477153 1 1s-.44771525 1-1 1z" fill="#428dff"/><path id="Shape" d="m57 8h-1v-2c0-1.1045695-.8954305-2-2-2h-6c-1.1045695 0-2 .8954305-2 2v2h-2.307l-2.27-6.053c-.4422917-1.16847153-1.5596277-1.94292973-2.809-1.947h-13.228c-1.2493723.00407027-2.3667083.77852847-2.809 1.947l-2.27 6.053h-2.307v-2c0-1.1045695-.8954305-2-2-2h-10c-1.1045695 0-2 .8954305-2 2v2h-1c-1.65685425 0-3 1.34314575-3 3v32c0 .5522847.44771525 1 1 1s1-.4477153 1-1v-23h15c.5522847 0 1-.4477153 1-1s-.4477153-1-1-1h-15v-7c0-.5522847.44771525-1 1-1h54c.5522847 0 1 .4477153 1 1v7h-11c-.5522847 0-1 .4477153-1 1s.4477153 1 1 1h11v31c0 .5522847-.4477153 1-1 1h-16.566c7.9078381-3.9173421 12.0774214-12.7639195 10.0657905-21.3565218s-9.6748558-14.668978-18.4997905-14.668978-16.4881596 6.0763757-18.4997905 14.668978 2.1579524 17.4391797 10.0657905 21.3565218h-20.566c-.55228475 0-1-.4477153-1-1s-.44771525-1-1-1-1 .4477153-1 1c0 1.6568542 1.34314575 3 3 3h54c1.6568542 0 3-1.3431458 3-3v-40c0-1.65685425-1.3431458-3-3-3zm-41 0h-10v-2h10zm6.443 0 2.006-5.351c.1480656-.38928892.5205072-.64725543.937-.649h13.228c.4167554.00015649.7897189.25876043.936.649l2.007 5.351zm31.557 0h-6v-2h6zm-39 27c0-9.3888407 7.6111593-17 17-17s17 7.6111593 17 17-7.6111593 17-17 17c-9.3845001-.010471-16.989529-7.6154999-17-17z" fill="#428dff"/><path id="Shape" d="m32 20c-.5522847 0-1 .4477153-1 1s.4477153 1 1 1c7.1797017 0 13 5.8202983 13 13s-5.8202983 13-13 13-13-5.8202983-13-13c0-.5522847-.4477153-1-1-1s-1 .4477153-1 1c0 8.2842712 6.7157288 15 15 15s15-6.7157288 15-15-6.7157288-15-15-15z" fill="#428dff"/><path id="Shape" d="m32 40c2.7614237-.0000001 4.9999999-2.2385763 4.9999999-5s-2.2385762-4.9999999-4.9999999-5c-.5522847 0-1 .4477153-1 1s.4477153 1 1 1c1.6568542 0 3 1.3431458 3 3s-1.3431458 3-3 3-3-1.3431458-3-3c0-.5522847-.4477153-1-1-1s-1 .4477153-1 1c.0033061 2.7600532 2.2399468 4.9966939 5 5z" fill="#428dff"/><path id="Shape" d="m22 14c0-.5522847-.4477153-1-1-1h-16c-.55228475 0-1 .4477153-1 1s.44771525 1 1 1h16c.5522847 0 1-.4477153 1-1z" fill="#428dff"/><path id="Shape" d="m55 15c.5522847 0 1-.4477153 1-1s-.4477153-1-1-1h-2c-.5522847 0-1 .4477153-1 1s.4477153 1 1 1z" fill="#428dff"/><path id="Shape" d="m37 4h-10c-.5522847 0-1 .44771525-1 1s.4477153 1 1 1h10c.5522847 0 1-.44771525 1-1s-.4477153-1-1-1z" fill="#428dff"/></g></g></g></svg>